<svg xmlns="http://www.w3.org/2000/svg" xmlns:xlink="http://www.w3.org/1999/xlink" width="250" zoomAndPan="magnify" viewBox="0 0 187.5 187.499992" height="250" preserveAspectRatio="xMidYMid meet" version="1.0"><defs><g/><clipPath id="6216ed5b3a"><path d="M 59.652344 70 L 94 70 L 94 100 L 59.652344 100 Z M 59.652344 70 " clip-rule="nonzero"/></clipPath><clipPath id="2a78531bba"><path d="M 93 54.261719 L 127.902344 54.261719 L 127.902344 85 L 93 85 Z M 93 54.261719 " clip-rule="nonzero"/></clipPath></defs><g clip-path="url(#6216ed5b3a)"><path fill="#0652e9" d="M 82.636719 91.246094 L 82.636719 95.386719 L 63.820312 86.675781 L 63.820312 83.316406 L 82.636719 74.601562 L 82.636719 78.746094 L 68.40625 84.957031 L 68.40625 85.035156 Z M 93.808594 70 L 62.347656 70 C 60.859375 70 59.65625 71.199219 59.65625 72.683594 L 59.65625 97.308594 C 59.65625 98.789062 60.859375 99.988281 62.347656 99.988281 L 85.074219 99.988281 L 93.808594 70 " fill-opacity="1" fill-rule="nonzero"/></g><g clip-path="url(#2a78531bba)"><path fill="#0f1120" d="M 123.742188 71.066406 L 104.929688 79.660156 L 104.929688 75.519531 L 119.472656 69.308594 L 119.472656 69.230469 L 104.929688 63.015625 L 104.929688 58.875 L 123.742188 67.472656 Z M 102.542969 54.273438 L 93.808594 84.261719 L 125.21875 84.261719 C 126.703125 84.261719 127.910156 83.0625 127.910156 81.582031 L 127.910156 56.953125 C 127.910156 55.472656 126.703125 54.273438 125.21875 54.273438 L 102.542969 54.273438 " fill-opacity="1" fill-rule="nonzero"/></g><g fill="#000000" fill-opacity="1"><g transform="translate(78.62087, 117.079926)"><g><path d="M 7.4375 -8.46875 L 7.4375 -10.496094 L 1.121094 -10.496094 L 1.121094 0 L 3.429688 0 L 3.429688 -4.234375 L 6.859375 -4.234375 L 6.859375 -6.261719 L 3.429688 -6.261719 L 3.429688 -8.46875 Z M 7.4375 -8.46875 "/></g></g></g><g fill="#000000" fill-opacity="1"><g transform="translate(86.843578, 117.079926)"><g><path d="M 8.574219 -10.496094 L 8.574219 -3.550781 L 3.410156 -10.496094 L 1.03125 -10.496094 L 1.03125 0 L 3.339844 0 L 3.339844 -6.964844 L 8.484375 0 L 10.863281 0 L 10.863281 -10.496094 Z M 8.574219 -10.496094 "/></g></g></g><g fill="#000000" fill-opacity="1"><g transform="translate(99.368004, 117.079926)"><g><path d="M 7.347656 -5.320312 C 8.136719 -5.738281 8.644531 -6.472656 8.644531 -7.574219 C 8.644531 -9.429688 7.242188 -10.496094 5.476562 -10.496094 L 1.03125 -10.496094 L 1.03125 0 L 5.878906 0 C 7.628906 0 8.992188 -1.015625 8.992188 -2.871094 C 8.992188 -4.148438 8.328125 -4.933594 7.347656 -5.320312 Z M 6.332031 -7.332031 C 6.332031 -6.71875 5.828125 -6.195312 5.195312 -6.195312 L 3.339844 -6.195312 L 3.339844 -8.449219 L 5.195312 -8.449219 C 5.828125 -8.449219 6.332031 -7.960938 6.332031 -7.332031 Z M 5.546875 -2.046875 L 3.339844 -2.046875 L 3.339844 -4.304688 L 5.546875 -4.304688 C 6.195312 -4.304688 6.683594 -3.777344 6.683594 -3.167969 C 6.683594 -2.535156 6.195312 -2.046875 5.546875 -2.046875 Z M 5.546875 -2.046875 "/></g></g></g><g fill="#000000" fill-opacity="1"><g transform="translate(66.040064, 131.214438)"><g><path d="M 0.546875 0 L 1.777344 0 C 3.015625 0 4.027344 -1.003906 4.027344 -2.25 C 4.027344 -3.496094 3.015625 -4.5 1.777344 -4.5 L 0.546875 -4.5 Z M 1.019531 -0.480469 L 1.019531 -4.019531 L 1.769531 -4.019531 C 2.765625 -4.019531 3.546875 -3.261719 3.546875 -2.25 C 3.546875 -1.238281 2.765625 -0.480469 1.769531 -0.480469 Z M 1.019531 -0.480469 "/></g></g></g><g fill="#000000" fill-opacity="1"><g transform="translate(72.438624, 131.214438)"><g><path d="M 3.046875 -4.035156 L 3.046875 -4.5 L 0.585938 -4.5 L 0.585938 0 L 3.046875 0 L 3.046875 -0.464844 L 1.066406 -0.464844 L 1.066406 -2.015625 L 2.789062 -2.015625 L 2.789062 -2.484375 L 1.066406 -2.484375 L 1.066406 -4.035156 Z M 3.046875 -4.035156 "/></g></g></g><g fill="#000000" fill-opacity="1"><g transform="translate(77.938508, 131.214438)"><g><path d="M 3.261719 -4.5 L 1.898438 -0.613281 L 0.53125 -4.5 L 0 -4.5 L 1.628906 0 L 2.160156 0 L 3.789062 -4.5 Z M 3.261719 -4.5 "/></g></g></g><g fill="#000000" fill-opacity="1"><g transform="translate(83.73046, 131.214438)"><g><path d="M 3.046875 -4.035156 L 3.046875 -4.5 L 0.585938 -4.5 L 0.585938 0 L 3.046875 0 L 3.046875 -0.464844 L 1.066406 -0.464844 L 1.066406 -2.015625 L 2.789062 -2.015625 L 2.789062 -2.484375 L 1.066406 -2.484375 L 1.066406 -4.035156 Z M 3.046875 -4.035156 "/></g></g></g><g fill="#000000" fill-opacity="1"><g transform="translate(89.230344, 131.214438)"><g><path d="M 1.027344 -0.480469 L 1.027344 -4.5 L 0.546875 -4.5 L 0.546875 0 L 2.699219 0 L 2.699219 -0.480469 Z M 1.027344 -0.480469 "/></g></g></g><g fill="#000000" fill-opacity="1"><g transform="translate(94.003799, 131.214438)"><g><path d="M 2.675781 0.0585938 C 3.960938 0.0585938 4.988281 -0.976562 4.988281 -2.25 C 4.988281 -3.523438 3.960938 -4.558594 2.675781 -4.558594 C 1.402344 -4.558594 0.367188 -3.523438 0.367188 -2.25 C 0.367188 -0.976562 1.402344 0.0585938 2.675781 0.0585938 Z M 2.675781 -0.421875 C 1.664062 -0.421875 0.847656 -1.230469 0.847656 -2.25 C 0.847656 -3.269531 1.664062 -4.078125 2.675781 -4.078125 C 3.699219 -4.078125 4.507812 -3.269531 4.507812 -2.25 C 4.507812 -1.230469 3.699219 -0.421875 2.675781 -0.421875 Z M 2.675781 -0.421875 "/></g></g></g><g fill="#000000" fill-opacity="1"><g transform="translate(101.368439, 131.214438)"><g><path d="M 2.160156 -4.5 L 0.546875 -4.5 L 0.546875 0 L 1.027344 0 L 1.027344 -2.003906 L 2.160156 -2.003906 C 2.859375 -2.003906 3.414062 -2.550781 3.414062 -3.246094 C 3.414062 -3.9375 2.859375 -4.5 2.160156 -4.5 Z M 2.113281 -2.460938 L 1.027344 -2.460938 L 1.027344 -4.035156 L 2.113281 -4.035156 C 2.566406 -4.035156 2.933594 -3.71875 2.933594 -3.238281 C 2.933594 -2.746094 2.566406 -2.460938 2.113281 -2.460938 Z M 2.113281 -2.460938 "/></g></g></g><g fill="#000000" fill-opacity="1"><g transform="translate(106.913255, 131.214438)"><g><path d="M 3.046875 -4.035156 L 3.046875 -4.5 L 0.585938 -4.5 L 0.585938 0 L 3.046875 0 L 3.046875 -0.464844 L 1.066406 -0.464844 L 1.066406 -2.015625 L 2.789062 -2.015625 L 2.789062 -2.484375 L 1.066406 -2.484375 L 1.066406 -4.035156 Z M 3.046875 -4.035156 "/></g></g></g><g fill="#000000" fill-opacity="1"><g transform="translate(112.413138, 131.214438)"><g><path d="M 2.371094 -2.054688 C 2.960938 -2.136719 3.414062 -2.632812 3.414062 -3.238281 C 3.414062 -3.945312 2.851562 -4.5 2.160156 -4.5 L 0.546875 -4.5 L 0.546875 0 L 1.027344 0 L 1.027344 -2.03125 L 1.875 -2.03125 L 3.148438 0 L 3.699219 0 Z M 1.027344 -2.488281 L 1.027344 -4.019531 L 2.128906 -4.019531 C 2.578125 -4.019531 2.933594 -3.703125 2.933594 -3.253906 C 2.933594 -2.796875 2.585938 -2.488281 2.128906 -2.488281 Z M 1.027344 -2.488281 "/></g></g></g><g fill="#000000" fill-opacity="1"><g transform="translate(118.18263, 131.214438)"><g><path d="M 1.679688 0.0585938 C 2.445312 0.0585938 3.066406 -0.398438 3.066406 -1.183594 C 3.066406 -2.714844 0.878906 -2.339844 0.878906 -3.414062 C 0.878906 -3.863281 1.246094 -4.078125 1.664062 -4.078125 C 2.011719 -4.078125 2.296875 -3.9375 2.476562 -3.683594 L 2.851562 -3.996094 C 2.601562 -4.3125 2.167969 -4.558594 1.648438 -4.558594 C 0.960938 -4.558594 0.398438 -4.109375 0.398438 -3.375 C 0.398438 -1.925781 2.585938 -2.289062 2.585938 -1.171875 C 2.585938 -0.691406 2.191406 -0.421875 1.6875 -0.421875 C 1.175781 -0.421875 0.808594 -0.699219 0.652344 -1.109375 L 0.21875 -0.855469 C 0.449219 -0.300781 1.011719 0.0585938 1.679688 0.0585938 Z M 1.679688 0.0585938 "/></g></g></g></svg>